<svg width="211" height="24" viewBox="0 0 211 24" fill="none" xmlns="http://www.w3.org/2000/svg">
<path opacity="0.5" d="M11.436 7.636L9.012 16H7.788L5.844 9.268L3.828 16L2.616 16.012L0.276 7.636H1.44L3.264 14.728L5.28 7.636H6.504L8.424 14.704L10.26 7.636H11.436ZM15.895 9.304C16.391 9.304 16.839 9.412 17.239 9.628C17.639 9.836 17.951 10.152 18.175 10.576C18.407 11 18.523 11.516 18.523 12.124V16H17.443V12.28C17.443 11.624 17.279 11.124 16.951 10.78C16.623 10.428 16.175 10.252 15.607 10.252C15.031 10.252 14.571 10.432 14.227 10.792C13.891 11.152 13.723 11.676 13.723 12.364V16H12.631V7.12H13.723V10.36C13.939 10.024 14.235 9.764 14.611 9.58C14.995 9.396 15.423 9.304 15.895 9.304ZM19.8988 12.688C19.8988 12.016 20.0348 11.428 20.3068 10.924C20.5788 10.412 20.9508 10.016 21.4228 9.736C21.9028 9.456 22.4348 9.316 23.0188 9.316C23.5948 9.316 24.0948 9.44 24.5188 9.688C24.9428 9.936 25.2588 10.248 25.4668 10.624V9.424H26.5708V16H25.4668V14.776C25.2508 15.16 24.9268 15.48 24.4948 15.736C24.0708 15.984 23.5748 16.108 23.0068 16.108C22.4228 16.108 21.8948 15.964 21.4228 15.676C20.9508 15.388 20.5788 14.984 20.3068 14.464C20.0348 13.944 19.8988 13.352 19.8988 12.688ZM25.4668 12.7C25.4668 12.204 25.3668 11.772 25.1668 11.404C24.9668 11.036 24.6948 10.756 24.3508 10.564C24.0148 10.364 23.6428 10.264 23.2348 10.264C22.8268 10.264 22.4548 10.36 22.1188 10.552C21.7828 10.744 21.5148 11.024 21.3148 11.392C21.1148 11.76 21.0148 12.192 21.0148 12.688C21.0148 13.192 21.1148 13.632 21.3148 14.008C21.5148 14.376 21.7828 14.66 22.1188 14.86C22.4548 15.052 22.8268 15.148 23.2348 15.148C23.6428 15.148 24.0148 15.052 24.3508 14.86C24.6948 14.66 24.9668 14.376 25.1668 14.008C25.3668 13.632 25.4668 13.196 25.4668 12.7ZM29.7482 10.324V14.2C29.7482 14.52 29.8162 14.748 29.9522 14.884C30.0882 15.012 30.3242 15.076 30.6602 15.076H31.4642V16H30.4802C29.8722 16 29.4162 15.86 29.1122 15.58C28.8082 15.3 28.6562 14.84 28.6562 14.2V10.324H27.8042V9.424H28.6562V7.768H29.7482V9.424H31.4642V10.324H29.7482ZM35.5785 12.688C35.5785 12.016 35.7145 11.428 35.9865 10.924C36.2585 10.412 36.6305 10.016 37.1025 9.736C37.5825 9.456 38.1145 9.316 38.6985 9.316C39.2745 9.316 39.7745 9.44 40.1985 9.688C40.6225 9.936 40.9385 10.248 41.1465 10.624V9.424H42.2505V16H41.1465V14.776C40.9305 15.16 40.6065 15.48 40.1745 15.736C39.7505 15.984 39.2545 16.108 38.6865 16.108C38.1025 16.108 37.5745 15.964 37.1025 15.676C36.6305 15.388 36.2585 14.984 35.9865 14.464C35.7145 13.944 35.5785 13.352 35.5785 12.688ZM41.1465 12.7C41.1465 12.204 41.0465 11.772 40.8465 11.404C40.6465 11.036 40.3745 10.756 40.0305 10.564C39.6945 10.364 39.3225 10.264 38.9145 10.264C38.5065 10.264 38.1345 10.36 37.7985 10.552C37.4625 10.744 37.1945 11.024 36.9945 11.392C36.7945 11.76 36.6945 12.192 36.6945 12.688C36.6945 13.192 36.7945 13.632 36.9945 14.008C37.1945 14.376 37.4625 14.66 37.7985 14.86C38.1345 15.052 38.5065 15.148 38.9145 15.148C39.3225 15.148 39.6945 15.052 40.0305 14.86C40.3745 14.66 40.6465 14.376 40.8465 14.008C41.0465 13.632 41.1465 13.196 41.1465 12.7ZM45.1879 10.492C45.3799 10.116 45.6519 9.824 46.0039 9.616C46.3639 9.408 46.7999 9.304 47.3119 9.304V10.432H47.0239C45.7999 10.432 45.1879 11.096 45.1879 12.424V16H44.0959V9.424H45.1879V10.492ZM54.5724 12.46C54.5724 12.668 54.5604 12.888 54.5364 13.12H49.2804C49.3204 13.768 49.5404 14.276 49.9404 14.644C50.3484 15.004 50.8404 15.184 51.4164 15.184C51.8884 15.184 52.2804 15.076 52.5924 14.86C52.9124 14.636 53.1364 14.34 53.2644 13.972H54.4404C54.2644 14.604 53.9124 15.12 53.3844 15.52C52.8564 15.912 52.2004 16.108 51.4164 16.108C50.7924 16.108 50.2324 15.968 49.7364 15.688C49.2484 15.408 48.8644 15.012 48.5844 14.5C48.3044 13.98 48.1644 13.38 48.1644 12.7C48.1644 12.02 48.3004 11.424 48.5724 10.912C48.8444 10.4 49.2244 10.008 49.7124 9.736C50.2084 9.456 50.7764 9.316 51.4164 9.316C52.0404 9.316 52.5924 9.452 53.0724 9.724C53.5524 9.996 53.9204 10.372 54.1764 10.852C54.4404 11.324 54.5724 11.86 54.5724 12.46ZM53.4444 12.232C53.4444 11.816 53.3524 11.46 53.1684 11.164C52.9844 10.86 52.7324 10.632 52.4124 10.48C52.1004 10.32 51.7524 10.24 51.3684 10.24C50.8164 10.24 50.3444 10.416 49.9524 10.768C49.5684 11.12 49.3484 11.608 49.2924 12.232H53.4444ZM64.8771 9.424L60.9171 19.096H59.7891L61.0851 15.928L58.4331 9.424H59.6451L61.7091 14.752L63.7491 9.424H64.8771ZM68.8428 16.108C68.2268 16.108 67.6668 15.968 67.1628 15.688C66.6668 15.408 66.2748 15.012 65.9868 14.5C65.7068 13.98 65.5668 13.38 65.5668 12.7C65.5668 12.028 65.7108 11.436 65.9988 10.924C66.2948 10.404 66.6948 10.008 67.1988 9.736C67.7028 9.456 68.2668 9.316 68.8908 9.316C69.5148 9.316 70.0788 9.456 70.5828 9.736C71.0868 10.008 71.4828 10.4 71.7708 10.912C72.0668 11.424 72.2148 12.02 72.2148 12.7C72.2148 13.38 72.0628 13.98 71.7588 14.5C71.4628 15.012 71.0588 15.408 70.5468 15.688C70.0348 15.968 69.4668 16.108 68.8428 16.108ZM68.8428 15.148C69.2348 15.148 69.6028 15.056 69.9468 14.872C70.2908 14.688 70.5668 14.412 70.7748 14.044C70.9908 13.676 71.0988 13.228 71.0988 12.7C71.0988 12.172 70.9948 11.724 70.7868 11.356C70.5788 10.988 70.3068 10.716 69.9708 10.54C69.6348 10.356 69.2708 10.264 68.8788 10.264C68.4788 10.264 68.1108 10.356 67.7748 10.54C67.4468 10.716 67.1828 10.988 66.9828 11.356C66.7828 11.724 66.6828 12.172 66.6828 12.7C66.6828 13.236 66.7788 13.688 66.9708 14.056C67.1708 14.424 67.4348 14.7 67.7628 14.884C68.0908 15.06 68.4508 15.148 68.8428 15.148ZM79.4826 9.424V16H78.3906V15.028C78.1826 15.364 77.8906 15.628 77.5146 15.82C77.1466 16.004 76.7386 16.096 76.2906 16.096C75.7786 16.096 75.3186 15.992 74.9106 15.784C74.5026 15.568 74.1786 15.248 73.9386 14.824C73.7066 14.4 73.5906 13.884 73.5906 13.276V9.424H74.6706V13.132C74.6706 13.78 74.8346 14.28 75.1626 14.632C75.4906 14.976 75.9386 15.148 76.5066 15.148C77.0906 15.148 77.5506 14.968 77.8866 14.608C78.2226 14.248 78.3906 13.724 78.3906 13.036V9.424H79.4826ZM85.6176 7.12V16H84.5256V7.12H85.6176ZM90.3467 16.108C89.7307 16.108 89.1707 15.968 88.6667 15.688C88.1707 15.408 87.7787 15.012 87.4907 14.5C87.2107 13.98 87.0707 13.38 87.0707 12.7C87.0707 12.028 87.2147 11.436 87.5027 10.924C87.7987 10.404 88.1987 10.008 88.7027 9.736C89.2067 9.456 89.7707 9.316 90.3947 9.316C91.0187 9.316 91.5827 9.456 92.0867 9.736C92.5907 10.008 92.9867 10.4 93.2747 10.912C93.5707 11.424 93.7187 12.02 93.7187 12.7C93.7187 13.38 93.5667 13.98 93.2627 14.5C92.9667 15.012 92.5627 15.408 92.0507 15.688C91.5387 15.968 90.9707 16.108 90.3467 16.108ZM90.3467 15.148C90.7387 15.148 91.1067 15.056 91.4507 14.872C91.7947 14.688 92.0707 14.412 92.2787 14.044C92.4947 13.676 92.6027 13.228 92.6027 12.7C92.6027 12.172 92.4987 11.724 92.2907 11.356C92.0827 10.988 91.8107 10.716 91.4747 10.54C91.1387 10.356 90.7747 10.264 90.3827 10.264C89.9827 10.264 89.6147 10.356 89.2787 10.54C88.9507 10.716 88.6867 10.988 88.4867 11.356C88.2867 11.724 88.1867 12.172 88.1867 12.7C88.1867 13.236 88.2827 13.688 88.4747 14.056C88.6747 14.424 88.9387 14.7 89.2667 14.884C89.5947 15.06 89.9547 15.148 90.3467 15.148ZM98.0225 16.108C97.4065 16.108 96.8465 15.968 96.3425 15.688C95.8465 15.408 95.4545 15.012 95.1665 14.5C94.8865 13.98 94.7465 13.38 94.7465 12.7C94.7465 12.028 94.8905 11.436 95.1785 10.924C95.4745 10.404 95.8745 10.008 96.3785 9.736C96.8825 9.456 97.4465 9.316 98.0705 9.316C98.6945 9.316 99.2585 9.456 99.7625 9.736C100.266 10.008 100.662 10.4 100.95 10.912C101.246 11.424 101.394 12.02 101.394 12.7C101.394 13.38 101.242 13.98 100.938 14.5C100.642 15.012 100.238 15.408 99.7265 15.688C99.2145 15.968 98.6465 16.108 98.0225 16.108ZM98.0225 15.148C98.4145 15.148 98.7825 15.056 99.1265 14.872C99.4705 14.688 99.7465 14.412 99.9545 14.044C100.17 13.676 100.278 13.228 100.278 12.7C100.278 12.172 100.174 11.724 99.9665 11.356C99.7585 10.988 99.4865 10.716 99.1505 10.54C98.8145 10.356 98.4505 10.264 98.0585 10.264C97.6585 10.264 97.2905 10.356 96.9545 10.54C96.6265 10.716 96.3625 10.988 96.1625 11.356C95.9625 11.724 95.8625 12.172 95.8625 12.7C95.8625 13.236 95.9585 13.688 96.1505 14.056C96.3505 14.424 96.6145 14.7 96.9425 14.884C97.2705 15.06 97.6305 15.148 98.0225 15.148ZM106.502 16L103.922 13.096V16H102.83V7.12H103.922V12.34L106.454 9.424H107.978L104.882 12.7L107.99 16H106.502ZM109.57 8.356C109.362 8.356 109.186 8.284 109.042 8.14C108.898 7.996 108.826 7.82 108.826 7.612C108.826 7.404 108.898 7.228 109.042 7.084C109.186 6.94 109.362 6.868 109.57 6.868C109.77 6.868 109.938 6.94 110.074 7.084C110.218 7.228 110.29 7.404 110.29 7.612C110.29 7.82 110.218 7.996 110.074 8.14C109.938 8.284 109.77 8.356 109.57 8.356ZM110.098 9.424V16H109.006V9.424H110.098ZM115.163 9.304C115.963 9.304 116.611 9.548 117.107 10.036C117.603 10.516 117.851 11.212 117.851 12.124V16H116.771V12.28C116.771 11.624 116.607 11.124 116.279 10.78C115.951 10.428 115.503 10.252 114.935 10.252C114.359 10.252 113.899 10.432 113.555 10.792C113.219 11.152 113.051 11.676 113.051 12.364V16H111.959V9.424H113.051V10.36C113.267 10.024 113.559 9.764 113.927 9.58C114.303 9.396 114.715 9.304 115.163 9.304ZM122.347 9.316C122.915 9.316 123.411 9.44 123.835 9.688C124.267 9.936 124.587 10.248 124.795 10.624V9.424H125.899V16.144C125.899 16.744 125.771 17.276 125.515 17.74C125.259 18.212 124.891 18.58 124.411 18.844C123.939 19.108 123.387 19.24 122.755 19.24C121.891 19.24 121.171 19.036 120.595 18.628C120.019 18.22 119.679 17.664 119.575 16.96H120.655C120.775 17.36 121.023 17.68 121.399 17.92C121.775 18.168 122.227 18.292 122.755 18.292C123.355 18.292 123.843 18.104 124.219 17.728C124.603 17.352 124.795 16.824 124.795 16.144V14.764C124.579 15.148 124.259 15.468 123.835 15.724C123.411 15.98 122.915 16.108 122.347 16.108C121.763 16.108 121.231 15.964 120.751 15.676C120.279 15.388 119.907 14.984 119.635 14.464C119.363 13.944 119.227 13.352 119.227 12.688C119.227 12.016 119.363 11.428 119.635 10.924C119.907 10.412 120.279 10.016 120.751 9.736C121.231 9.456 121.763 9.316 122.347 9.316ZM124.795 12.7C124.795 12.204 124.695 11.772 124.495 11.404C124.295 11.036 124.023 10.756 123.679 10.564C123.343 10.364 122.971 10.264 122.563 10.264C122.155 10.264 121.783 10.36 121.447 10.552C121.111 10.744 120.843 11.024 120.643 11.392C120.443 11.76 120.343 12.192 120.343 12.688C120.343 13.192 120.443 13.632 120.643 14.008C120.843 14.376 121.111 14.66 121.447 14.86C121.783 15.052 122.155 15.148 122.563 15.148C122.971 15.148 123.343 15.052 123.679 14.86C124.023 14.66 124.295 14.376 124.495 14.008C124.695 13.632 124.795 13.196 124.795 12.7ZM133.62 10.324H132.24V16H131.148V10.324H130.296V9.424H131.148V8.956C131.148 8.22 131.336 7.684 131.712 7.348C132.096 7.004 132.708 6.832 133.548 6.832V7.744C133.068 7.744 132.728 7.84 132.528 8.032C132.336 8.216 132.24 8.524 132.24 8.956V9.424H133.62V10.324ZM137.761 16.108C137.145 16.108 136.585 15.968 136.081 15.688C135.585 15.408 135.193 15.012 134.905 14.5C134.625 13.98 134.485 13.38 134.485 12.7C134.485 12.028 134.629 11.436 134.917 10.924C135.213 10.404 135.613 10.008 136.117 9.736C136.621 9.456 137.185 9.316 137.809 9.316C138.433 9.316 138.997 9.456 139.501 9.736C140.005 10.008 140.401 10.4 140.689 10.912C140.985 11.424 141.133 12.02 141.133 12.7C141.133 13.38 140.981 13.98 140.677 14.5C140.381 15.012 139.977 15.408 139.465 15.688C138.953 15.968 138.385 16.108 137.761 16.108ZM137.761 15.148C138.153 15.148 138.521 15.056 138.865 14.872C139.209 14.688 139.485 14.412 139.693 14.044C139.909 13.676 140.017 13.228 140.017 12.7C140.017 12.172 139.913 11.724 139.705 11.356C139.497 10.988 139.225 10.716 138.889 10.54C138.553 10.356 138.189 10.264 137.797 10.264C137.397 10.264 137.029 10.356 136.693 10.54C136.365 10.716 136.101 10.988 135.901 11.356C135.701 11.724 135.601 12.172 135.601 12.7C135.601 13.236 135.697 13.688 135.889 14.056C136.089 14.424 136.353 14.7 136.681 14.884C137.009 15.06 137.369 15.148 137.761 15.148ZM143.661 10.492C143.853 10.116 144.125 9.824 144.477 9.616C144.837 9.408 145.273 9.304 145.785 9.304V10.432H145.497C144.273 10.432 143.661 11.096 143.661 12.424V16H142.569V9.424H143.661V10.492ZM149.181 7.528C149.973 7.528 150.613 7.752 151.101 8.2C151.589 8.648 151.833 9.248 151.833 10C151.833 10.84 151.573 11.464 151.053 11.872C150.533 12.272 149.829 12.472 148.941 12.472L148.905 13.612H147.957L147.909 11.716H148.257C149.049 11.716 149.669 11.596 150.117 11.356C150.565 11.116 150.789 10.664 150.789 10C150.789 9.52 150.645 9.14 150.357 8.86C150.069 8.58 149.681 8.44 149.193 8.44C148.697 8.44 148.305 8.576 148.017 8.848C147.737 9.112 147.597 9.476 147.597 9.94H146.565C146.565 9.46 146.673 9.04 146.889 8.68C147.105 8.312 147.409 8.028 147.801 7.828C148.201 7.628 148.661 7.528 149.181 7.528ZM148.425 16.072C148.217 16.072 148.041 16 147.897 15.856C147.753 15.712 147.681 15.536 147.681 15.328C147.681 15.12 147.753 14.944 147.897 14.8C148.041 14.656 148.217 14.584 148.425 14.584C148.625 14.584 148.793 14.656 148.929 14.8C149.073 14.944 149.145 15.12 149.145 15.328C149.145 15.536 149.073 15.712 148.929 15.856C148.793 16 148.625 16.072 148.425 16.072Z" fill="black"/>
<path d="M207 20L203.222 16.2156M205.316 11.1579C205.316 13.0563 204.562 14.8769 203.219 16.2193C201.877 17.5617 200.056 18.3158 198.158 18.3158C196.26 18.3158 194.439 17.5617 193.096 16.2193C191.754 14.8769 191 13.0563 191 11.1579C191 9.2595 191.754 7.43886 193.096 6.0965C194.439 4.75413 196.26 4 198.158 4C200.056 4 201.877 4.75413 203.219 6.0965C204.562 7.43886 205.316 9.2595 205.316 11.1579V11.1579Z" stroke="black" stroke-width="1.5" stroke-linecap="round"/>
</svg>
