<svg width="80" height="44" viewBox="0 0 80 44" fill="none" xmlns="http://www.w3.org/2000/svg">
<mask id="path-1-inside-1_257_5016" fill="white">
<path d="M0 0H80V44H0V0Z"/>
</mask>
<path d="M0 1H80V-1H0V1ZM80 43H0V45H80V43Z" fill="black" fill-opacity="0.5" mask="url(#path-1-inside-1_257_5016)"/>
<path d="M36.46 25.9C37.74 24.7933 38.7467 23.8867 39.48 23.18C40.2267 22.46 40.8467 21.7133 41.34 20.94C41.8333 20.1667 42.08 19.3933 42.08 18.62C42.08 17.82 41.8867 17.1933 41.5 16.74C41.1267 16.2867 40.5333 16.06 39.72 16.06C38.9333 16.06 38.32 16.3133 37.88 16.82C37.4533 17.3133 37.2267 17.98 37.2 18.82H35C35.04 17.3 35.4933 16.14 36.36 15.34C37.24 14.5267 38.3533 14.12 39.7 14.12C41.1533 14.12 42.2867 14.52 43.1 15.32C43.9267 16.12 44.34 17.1867 44.34 18.52C44.34 19.48 44.0933 20.4067 43.6 21.3C43.12 22.18 42.54 22.9733 41.86 23.68C41.1933 24.3733 40.34 25.18 39.3 26.1L38.4 26.9H44.74V28.8H35.02V27.14L36.46 25.9Z" fill="black"/>
</svg>
